<svg version="1.1" id="Layer_1" xmlns="http://www.w3.org/2000/svg" xmlns:xlink="http://www.w3.org/1999/xlink" x="0px" y="0px"
	 width="100%" viewBox="0 0 500 500" enable-background="new 0 0 500 500" xml:space="preserve">
<path fill="#000000" opacity="1.000000" stroke="none" 
	d="
M348.000000,501.000000 
	C232.000031,501.000000 116.500053,501.000000 1.000062,501.000000 
	C1.000041,334.333405 1.000041,167.666794 1.000021,1.000151 
	C167.666550,1.000101 334.333099,1.000101 500.999756,1.000051 
	C500.999817,167.666519 500.999817,334.333038 500.999908,500.999786 
	C450.166656,501.000000 399.333344,501.000000 348.000000,501.000000 
M287.171814,489.894012 
	C290.376343,489.235291 293.578186,488.563263 296.785828,487.920013 
	C320.642639,483.135834 343.209259,475.098755 363.857483,461.949707 
	C384.220398,448.982330 400.380951,432.062836 410.908295,410.394836 
	C422.593231,386.344147 427.804565,360.856537 426.180237,333.882935 
	C425.314606,319.508759 423.896332,305.329346 419.740265,291.580048 
	C417.229523,283.273834 413.695465,275.276947 410.466766,266.732330 
	C405.775909,275.612518 402.192902,283.526855 397.590118,290.795380 
	C392.847595,298.284576 386.078857,303.805695 377.783295,307.151581 
	C377.302826,306.415466 377.118561,306.261871 377.140930,306.149231 
	C382.282135,280.235229 386.859924,254.318741 384.024414,227.651733 
	C382.591400,214.174683 379.072449,201.496231 372.611023,189.637283 
	C371.488251,187.576706 369.771790,185.839645 367.514160,182.886597 
	C361.841888,202.757431 351.641388,218.302567 336.886475,230.813934 
	C336.796722,229.343597 337.079834,228.102692 337.439514,226.884399 
	C343.032837,207.938477 344.395935,188.668152 341.977386,169.088135 
	C339.262787,147.110886 329.677612,128.435806 314.668640,112.418259 
	C313.142609,110.789673 310.810577,109.916344 308.475525,108.456863 
	C305.354553,141.959167 301.164398,157.387497 293.466919,163.866440 
	C292.929626,158.043762 292.390747,152.354584 291.882080,146.662720 
	C290.349243,129.511520 285.359253,113.368034 275.474335,99.312912 
	C266.396118,86.404861 256.071838,74.374283 246.322495,61.936771 
	C236.834290,49.832382 229.581543,36.707237 227.810028,21.096262 
	C227.359253,17.124046 226.837616,13.159874 226.145248,7.542800 
	C222.929581,10.814498 220.403351,12.877537 218.494766,15.406672 
	C202.967438,35.982464 195.743408,59.727108 193.181717,84.942535 
	C191.761887,98.918297 191.686157,113.032982 191.078751,127.088257 
	C190.450302,141.629730 188.413330,155.862701 182.107330,169.179703 
	C179.193817,175.332458 175.784531,181.045639 167.967499,183.131592 
	C165.653824,171.059570 158.029633,162.630981 148.860291,155.787567 
	C139.863098,149.072601 129.906906,143.831467 117.192101,141.911163 
	C127.589874,161.638824 132.541656,181.580185 133.053925,202.569855 
	C133.560532,223.327179 132.798508,243.968948 126.153885,265.369080 
	C115.714119,243.141479 100.960022,228.043701 75.620094,224.672684 
	C76.713982,226.865906 77.144882,228.101944 77.870728,229.129654 
	C89.898209,246.159058 91.788200,266.020447 91.583588,285.680939 
	C91.462082,297.355042 87.956055,309.326385 84.173782,320.558655 
	C76.958771,341.985199 73.347961,363.421600 76.923775,386.031067 
	C80.347427,407.678528 88.139168,427.320129 102.575279,443.750214 
	C122.318222,466.220184 147.605652,479.730011 176.436417,487.012787 
	C193.587921,491.345337 211.095612,492.613312 229.645309,493.797638 
	C248.718155,494.441986 267.622925,492.754395 287.171814,489.894012 
z"/>
<path fill="#E12933" opacity="1.000000" stroke="none" 
	d="
M228.649780,493.637665 
	C211.095612,492.613312 193.587921,491.345337 176.436417,487.012787 
	C147.605652,479.730011 122.318222,466.220184 102.575279,443.750214 
	C88.139168,427.320129 80.347427,407.678528 76.923775,386.031067 
	C73.347961,363.421600 76.958771,341.985199 84.173782,320.558655 
	C87.956055,309.326385 91.462082,297.355042 91.583588,285.680939 
	C91.788200,266.020447 89.898209,246.159058 77.870728,229.129654 
	C77.144882,228.101944 76.713982,226.865906 75.620094,224.672684 
	C100.960022,228.043701 115.714119,243.141479 126.153885,265.369080 
	C132.798508,243.968948 133.560532,223.327179 133.053925,202.569855 
	C132.541656,181.580185 127.589874,161.638824 117.192101,141.911163 
	C129.906906,143.831467 139.863098,149.072601 148.860291,155.787567 
	C158.029633,162.630981 165.653824,171.059570 167.967499,183.131592 
	C175.784531,181.045639 179.193817,175.332458 182.107330,169.179703 
	C188.413330,155.862701 190.450302,141.629730 191.078751,127.088257 
	C191.686157,113.032982 191.761887,98.918297 193.181717,84.942535 
	C195.743408,59.727108 202.967438,35.982464 218.494766,15.406672 
	C220.403351,12.877537 222.929581,10.814498 226.145248,7.542800 
	C226.837616,13.159874 227.359253,17.124046 227.810028,21.096262 
	C229.581543,36.707237 236.834290,49.832382 246.322495,61.936771 
	C256.071838,74.374283 266.396118,86.404861 275.474335,99.312912 
	C285.359253,113.368034 290.349243,129.511520 291.882080,146.662720 
	C292.390747,152.354584 292.929626,158.043762 293.466919,163.866440 
	C301.164398,157.387497 305.354553,141.959167 308.475525,108.456863 
	C310.810577,109.916344 313.142609,110.789673 314.668640,112.418259 
	C329.677612,128.435806 339.262787,147.110886 341.977386,169.088135 
	C344.395935,188.668152 343.032837,207.938477 337.439514,226.884399 
	C337.079834,228.102692 336.796722,229.343597 336.886475,230.813934 
	C351.641388,218.302567 361.841888,202.757431 367.514160,182.886597 
	C369.771790,185.839645 371.488251,187.576706 372.611023,189.637283 
	C379.072449,201.496231 382.591400,214.174683 384.024414,227.651733 
	C386.859924,254.318741 382.282135,280.235229 377.140930,306.149231 
	C377.118561,306.261871 377.302826,306.415466 377.783295,307.151581 
	C386.078857,303.805695 392.847595,298.284576 397.590118,290.795380 
	C402.192902,283.526855 405.775909,275.612518 410.466766,266.732330 
	C413.695465,275.276947 417.229523,283.273834 419.740265,291.580048 
	C423.896332,305.329346 425.314606,319.508759 426.180237,333.882935 
	C427.804565,360.856537 422.593231,386.344147 410.908295,410.394836 
	C400.380951,432.062836 384.220398,448.982330 363.857483,461.949707 
	C343.209259,475.098755 320.642639,483.135834 296.785828,487.920013 
	C293.578186,488.563263 290.376343,489.235291 286.648193,489.590637 
	C287.217010,488.210175 288.142975,486.847656 289.426880,486.098907 
	C308.357025,475.059174 321.791504,459.135071 330.902710,439.419983 
	C343.213226,412.782288 346.140198,384.731140 342.518738,355.926361 
	C339.936035,335.383728 333.979675,315.881256 321.915405,298.675995 
	C320.720825,296.972382 319.241486,295.468475 317.640594,293.571136 
	C316.419922,295.074127 315.505157,296.016998 314.801453,297.097321 
	C310.869232,303.133972 305.236755,306.726654 298.394379,308.549530 
	C284.506897,312.249268 270.346680,306.119141 261.144226,292.372375 
	C251.651352,278.191772 250.101898,262.339172 251.526367,245.881393 
	C251.814331,242.554291 252.030884,239.220993 252.294876,235.697037 
	C250.916214,235.891907 250.523972,235.833862 250.294693,236.000290 
	C249.489624,236.584656 248.678040,237.184113 247.979538,237.887650 
	C231.863617,254.119995 222.309525,273.544220 221.011917,296.436981 
	C220.306671,308.879456 221.699051,321.442902 220.952927,333.880249 
	C220.473892,341.865723 219.129120,350.304230 215.901703,357.524689 
	C206.375076,378.837982 184.804474,382.461151 167.619080,366.514404 
	C160.253418,359.679657 155.374313,351.236420 151.122711,342.317444 
	C150.319458,340.632355 149.348831,339.027039 148.455414,337.384918 
	C146.604614,340.304626 145.767334,342.950409 145.258926,345.657959 
	C141.807846,364.036987 141.495895,382.500854 145.459015,400.772491 
	C155.222336,445.785522 177.556641,479.857635 225.596634,491.038971 
	C226.753311,491.308167 227.638153,492.745270 228.649780,493.637665 
z"/>
<path fill="#FFAE46" opacity="1.000000" stroke="none" 
	d="
M229.147537,493.717651 
	C227.638153,492.745270 226.753311,491.308167 225.596634,491.038971 
	C177.556641,479.857635 155.222336,445.785522 145.459015,400.772491 
	C141.495895,382.500854 141.807846,364.036987 145.258926,345.657959 
	C145.767334,342.950409 146.604614,340.304626 148.455414,337.384918 
	C149.348831,339.027039 150.319458,340.632355 151.122711,342.317444 
	C155.374313,351.236420 160.253418,359.679657 167.619080,366.514404 
	C184.804474,382.461151 206.375076,378.837982 215.901703,357.524689 
	C219.129120,350.304230 220.473892,341.865723 220.952927,333.880249 
	C221.699051,321.442902 220.306671,308.879456 221.011917,296.436981 
	C222.309525,273.544220 231.863617,254.119995 247.979538,237.887650 
	C248.678040,237.184113 249.489624,236.584656 250.294693,236.000290 
	C250.523972,235.833862 250.916214,235.891907 252.294876,235.697037 
	C252.030884,239.220993 251.814331,242.554291 251.526367,245.881393 
	C250.101898,262.339172 251.651352,278.191772 261.144226,292.372375 
	C270.346680,306.119141 284.506897,312.249268 298.394379,308.549530 
	C305.236755,306.726654 310.869232,303.133972 314.801453,297.097321 
	C315.505157,296.016998 316.419922,295.074127 317.640594,293.571136 
	C319.241486,295.468475 320.720825,296.972382 321.915405,298.675995 
	C333.979675,315.881256 339.936035,335.383728 342.518738,355.926361 
	C346.140198,384.731140 343.213226,412.782288 330.902710,439.419983 
	C321.791504,459.135071 308.357025,475.059174 289.426880,486.098907 
	C288.142975,486.847656 287.217010,488.210175 286.277100,489.496399 
	C267.622925,492.754395 248.718155,494.441986 229.147537,493.717651 
z"/>
</svg>